<svg version="1.1" viewBox="0 0 394 80" xmlns="http://www.w3.org/2000/svg">
 <path d="m196.51 1.3301c-1.759 0.00116-3.5181 0.00444-5.2773 0.00391l-34.096 77.336 13.832-0.14258 10.471-12.025 15.564-0.24609 15.562 0.24609 10.471 12.025 13.832 0.14258-34.096-77.336c-1.7593 5.308e-4 -3.5183-0.00275-5.2773-0.00391-0.32876-2.162e-4 -0.65757 6.51e-5 -0.98633 0zm0 16.756h0.98633l1.707 2e-3 13.463 37.898c-4.0162-0.0455-9.7785-0.07912-15.17-0.11133v-0.0078c-0.17334 1e-3 -0.31799 0.0029-0.49219 0.0039-0.17489-1e-3 -0.32011-0.0029-0.49413-0.0039v0.0078c-5.3914 0.03221-11.154 0.06583-15.17 0.11133l13.463-37.898z"/>
</svg>
