<svg version="1.1" viewBox="0 0 394 80" xml:space="preserve" xmlns="http://www.w3.org/2000/svg"><path d="m0.91016 1.9336v77.355h13.059v-31.871h34.307v-12.064h-34.307v-21.248h38.402l0.11133-12.172h-51.572zm66.844 0v77.355h48.361v-12.395h-35.303v-64.961h-13.059zm144.71 0v77.355h13.059v-60.424l26.893 53.674h7.3027l27.004-53.674v60.424h13.059v-77.355h-20.252l-23.352 48.582-23.352-48.582h-20.361zm144.1 44.299c-3.4151 0-6.3028 1.2386-8.6602 3.7168-1.2089 1.2693-2.1604 2.992-2.8555 5.168-0.69512 2.176-1.043 4.8962-1.043 8.1602 0 3.264 0.54481 6.1958 1.6328 8.7949 1.9342 4.5333 5.4402 6.7988 10.518 6.7988 3.1431 0 5.7418-0.95147 7.7969-2.8555 2.0853-1.904 3.127-4.4125 3.127-7.5254 0-3.1431-0.96617-5.6516-2.9004-7.5254-1.904-1.904-4.2763-2.8555-7.1172-2.8555-1.7227 0-3.2944 0.37726-4.7148 1.1328-1.4204 0.72533-2.5081 1.5112-3.2637 2.3574 0.03022-3.2338 0.70928-5.803 2.0391-7.707s3.4003-2.8555 6.2109-2.8555c0.90667 0 1.9336 0.24105 3.082 0.72461 1.1787 0.48356 2.1174 1.0284 2.8125 1.6328l2.6738-3.9434c-2.7804-2.1458-5.8926-3.2188-9.3379-3.2188zm16.637 0.54297v15.232l2.2656 2.4473c1.8133-0.99733 3.7182-1.4941 5.7129-1.4941 2.0249 0 3.6868 0.48211 4.9863 1.4492 1.3298 0.93689 1.9941 2.2823 1.9941 4.0352 0 1.7227-0.61831 3.0367-1.8574 3.9434-1.2391 0.90667-2.6139 1.3613-4.125 1.3613s-2.9025-0.27241-4.1719-0.81641c-1.2693-0.57422-2.116-1.0269-2.5391-1.3594-0.39288-0.33244-0.70939-0.61955-0.95117-0.86133l-2.8555 3.8984c2.5387 2.8409 5.9379 4.2598 10.199 4.2598 3.264 0 6.0136-0.99557 8.25-2.9902 2.2364-2.0249 3.3555-4.5647 3.3555-7.6172 0-3.0524-1.073-5.4708-3.2188-7.2539-2.1458-1.7831-4.7003-2.6738-7.6621-2.6738-1.6924 0-3.2034 0.36256-4.5332 1.0879v-7.7969h13.375v-4.8516h-18.225zm-54.627 0.046875v4.7598h11.469l-7.3438 8.5215v4.0801c1.088-0.33244 2.2217-0.49805 3.4004-0.49805 2.3573 0 4.2015 0.48406 5.5312 1.4512s1.9941 2.2664 1.9941 3.8984c0 1.6018-0.60361 2.8404-1.8125 3.7168-1.1787 0.84622-2.6916 1.2695-4.5352 1.2695-2.8409 0-5.5591-0.90737-8.1582-2.7207l-2.2676 4.3066c3.2942 2.2062 6.664 3.3105 10.109 3.3105 3.4453 0 6.2556-0.92207 8.4316-2.7656 2.2062-1.8436 3.3106-4.3834 3.3106-7.6172 0-2.4178-0.81722-4.4863-2.4492-6.209-1.632-1.7529-3.8975-2.675-6.7988-2.7656l7.6602-8.5684v-4.1699h-18.541zm37.762 16.002c1.8436 0 3.3104 0.57421 4.3984 1.7227 1.088 1.1182 1.6328 2.493 1.6328 4.125 0 1.6018-0.59086 2.9325-1.7695 3.9902-1.1787 1.0276-2.6583 1.541-4.4414 1.541-1.7831 0-3.2647-0.57421-4.4434-1.7227-1.1787-1.1787-1.7676-2.5701-1.7676-4.1719 0-1.632 0.60361-2.946 1.8125-3.9434 1.2391-1.0276 2.7648-1.541 4.5781-1.541z"/><path d="m161.04 2.0371c-1.759 0.0011569-3.5181 0.0044417-5.2773 0.0039062l-34.096 77.336 13.832-0.14258 10.471-12.025 15.564-0.24609 15.562 0.24609 10.471 12.025 13.832 0.14258-34.096-77.336c-1.7593 5.308e-4 -3.5183-0.0027496-5.2773-0.0039062-0.32876-2.162e-4 -0.65757 6.51e-5 -0.98633 0zm0 16.756h0.98633l1.707 0.001953 13.463 37.898c-4.0162-0.045501-9.7785-0.079122-15.17-0.11133v-0.007812c-0.17334 0.001033-0.31799 0.002867-0.49219 0.003906-0.17489-0.001043-0.32011-0.002869-0.49414-0.003906v0.007812c-5.3914 0.032207-11.154 0.065827-15.17 0.11133l13.463-37.898 1.707-0.001953zm-40.836 58.828-0.5371 1.2148 0.5371 0.013671v-1.2285zm82.658 0v1.2285l0.53711-0.013671-0.53711-1.2148z"/></svg>
